<svg id="LooksRare-01_svg__Layer_1" data-name="Layer 1" xmlns="http://www.w3.org/2000/svg" viewBox="0 0 147.03 147.03" width="28px" height="28px">
  <defs>
    <style>
      .LooksRare-01_svg__cls-2 {
        fill-rule: evenodd
      }
    </style>
  </defs>
  <circle cx="73.51" cy="73.51" r="73.51" style="fill: rgb(12, 228, 102);"></circle>
  <path class="LooksRare-01_svg__cls-2" d="M73.51 81.46a15.24 15.24 0 1 1 15.24-15.23 15.23 15.23 0 0 1-15.24 15.23Zm-6.62-15.23a6.63 6.63 0 1 0 6.62-6.63 6.62 6.62 0 0 0-6.62 6.63Z"></path>
  <path class="LooksRare-01_svg__cls-2" d="m24.5 66.25 29.14-29.16h39.74l29.14 29.16-49 49ZM96 55.63a31.83 31.83 0 0 0-45 0l-10.6 10.6L51 76.82a31.83 31.83 0 0 0 45 0l10.6-10.59Z"></path>
</svg>