<svg width="32" height="32" fill="white" className="bi bi-opensea" xmlns="http://www.w3.org/2000/svg" viewBox="0 0 90 90">
    <path d="M10.84,49.44l.28-.43L27.77,23a.56.56,0,0,1,1,.07c2.78,6.23,5.18,14,4.05,18.81A29.52,29.52,0,0,1,29.55,49c-.19.36-.4.72-.62,1.06a.58.58,0,0,1-.48.25H11.33A.57.57,0,0,1,10.84,49.44Z"></path>
    <path d="M85.05,54.28V58.4a.58.58,0,0,1-.35.54c-1.29.56-5.71,2.58-7.54,5.13-4.68,6.52-8.26,15.84-16.25,15.84H27.55A21.44,21.44,0,0,1,6.15,58.43v-.38a.57.57,0,0,1,.57-.57h18.6a.63.63,0,0,1,.6.7,6.37,6.37,0,0,0,.66,3.57,6.56,6.56,0,0,0,5.87,3.64h9.2V58.21H32.56a.59.59,0,0,1-.48-.92l.33-.49c.86-1.22,2.09-3.12,3.31-5.29A40,40,0,0,0,38,46.93c.13-.28.24-.57.34-.85.18-.5.36-1,.49-1.44s.24-.81.35-1.19a19.11,19.11,0,0,0,.44-4.2c0-.57,0-1.17-.08-1.74s-.11-1.25-.19-1.87-.15-1.1-.25-1.67c-.13-.84-.32-1.67-.53-2.5l-.07-.32c-.16-.57-.29-1.12-.47-1.69-.52-1.79-1.12-3.54-1.75-5.18-.23-.65-.5-1.28-.76-1.9-.39-.94-.78-1.79-1.14-2.6-.19-.37-.35-.71-.5-1.05s-.37-.77-.55-1.14-.28-.55-.39-.81L31.84,14.7a.36.36,0,0,1,.41-.53l7,1.9h0l.93.26,1,.29.37.1V12.55a3.64,3.64,0,0,1,3.62-3.66A3.56,3.56,0,0,1,47.83,10a3.67,3.67,0,0,1,1.06,2.58v6.21l.75.21a.53.53,0,0,1,.17.08l.78.59c.26.22.55.47.89.73.68.55,1.48,1.25,2.37,2.06.24.21.47.42.68.63,1.14,1.06,2.43,2.31,3.65,3.69.34.39.68.78,1,1.2s.7.83,1,1.25.86,1.12,1.25,1.72c.18.28.39.57.57.86.5.75.94,1.53,1.36,2.32.18.36.36.75.52,1.14A17.5,17.5,0,0,1,65,38.42a4.62,4.62,0,0,1,.15.7v.05a5.36,5.36,0,0,1,.13,1,10.37,10.37,0,0,1-.18,3.28,12.31,12.31,0,0,1-.39,1.37c-.16.45-.32.91-.52,1.36a18.57,18.57,0,0,1-1.41,2.68c-.18.31-.39.65-.6,1s-.47.66-.68,1-.6.81-.91,1.18a10.94,10.94,0,0,1-.89,1.12c-.44.52-.86,1-1.3,1.49-.26.3-.55.62-.84.9s-.57.6-.83.86c-.44.44-.81.79-1.12,1.07l-.72.66a.63.63,0,0,1-.39.15h-5.6v7.18h7a6.56,6.56,0,0,0,4.28-1.58,49.47,49.47,0,0,0,4.36-4.29.5.5,0,0,1,.27-.16l19.47-5.63A.57.57,0,0,1,85.05,54.28Z"></path>
</svg>    